<svg width="25" height="24" viewBox="0 0 25 24" fill="none" xmlns="http://www.w3.org/2000/svg">
<path d="M6.30628 14.25C4.74256 14.25 3.49964 13.0049 3.49964 11.5C3.49964 9.99513 4.74256 8.75 6.30628 8.75C7.86985 8.75016 9.11194 9.99523 9.11194 11.5C9.11194 13.0048 7.86985 14.2498 6.30628 14.25Z" stroke="white" stroke-width="2"/>
<path d="M15.6937 4C17.2574 4 18.5004 5.24513 18.5004 6.75C18.5004 8.25487 17.2574 9.5 15.6937 9.5C14.1302 9.49984 12.8881 8.25477 12.8881 6.75C12.8881 5.24523 14.1302 4.00016 15.6937 4Z" stroke="white" stroke-width="2"/>
<path d="M15.6937 14.5C17.2574 14.5 18.5004 15.7451 18.5004 17.25C18.5004 18.7549 17.2574 20 15.6937 20C14.1302 19.9998 12.8881 18.7548 12.8881 17.25C12.8881 15.7452 14.1302 14.5002 15.6937 14.5Z" stroke="white" stroke-width="2"/>
<path d="M13.6811 8.8515C14.1513 8.5619 14.2978 7.94591 14.0082 7.47564C13.7186 7.00537 13.1026 6.85891 12.6324 7.1485L13.1567 8L13.6811 8.8515ZM13.1567 8L12.6324 7.1485L8.57266 9.6485L9.09702 10.5L9.62137 11.3515L13.6811 8.8515L13.1567 8Z" fill="white"/>
<path d="M13.1567 16L8.58955 12.5" stroke="white" stroke-width="2"/>
</svg>
